<mxfile host="app.diagrams.net" agent="Mozilla/5.0 (Windows NT 10.0; Win64; x64) AppleWebKit/537.36 (KHTML, like Gecko) Chrome/131.0.0.0 Safari/537.36 Edg/131.0.0.0" version="24.8.3">
  <diagram name="Page-1" id="5nAgHFU0FjnpTuFjDVsR">
    <mxGraphModel dx="1426" dy="791" grid="1" gridSize="10" guides="1" tooltips="1" connect="1" arrows="1" fold="1" page="1" pageScale="1" pageWidth="850" pageHeight="1100" math="0" shadow="0">
      <root>
        <mxCell id="0" />
        <mxCell id="1" parent="0" />
        <mxCell id="t-QGVr6KC28RbxTMeGiW-3" value="Production" style="swimlane;whiteSpace=wrap;html=1;" vertex="1" parent="1">
          <mxGeometry x="40" y="80" width="200" height="690" as="geometry" />
        </mxCell>
        <mxCell id="t-QGVr6KC28RbxTMeGiW-11" value="TEST TEST" style="rounded=0;whiteSpace=wrap;html=1;" vertex="1" parent="t-QGVr6KC28RbxTMeGiW-3">
          <mxGeometry x="40" y="130" width="120" height="60" as="geometry" />
        </mxCell>
        <mxCell id="t-QGVr6KC28RbxTMeGiW-4" value="Warehouse" style="swimlane;whiteSpace=wrap;html=1;" vertex="1" parent="1">
          <mxGeometry x="240" y="80" width="210" height="690" as="geometry" />
        </mxCell>
        <mxCell id="t-QGVr6KC28RbxTMeGiW-10" value="TEST TEST" style="rounded=0;whiteSpace=wrap;html=1;" vertex="1" parent="t-QGVr6KC28RbxTMeGiW-4">
          <mxGeometry x="45" y="50" width="120" height="60" as="geometry" />
        </mxCell>
        <mxCell id="t-QGVr6KC28RbxTMeGiW-13" value="TEST TEST" style="rounded=0;whiteSpace=wrap;html=1;" vertex="1" parent="t-QGVr6KC28RbxTMeGiW-4">
          <mxGeometry x="45" y="240" width="120" height="60" as="geometry" />
        </mxCell>
        <mxCell id="t-QGVr6KC28RbxTMeGiW-12" value="" style="edgeStyle=orthogonalEdgeStyle;rounded=0;orthogonalLoop=1;jettySize=auto;html=1;exitX=0.5;exitY=1;exitDx=0;exitDy=0;entryX=1;entryY=0.5;entryDx=0;entryDy=0;" edge="1" parent="1" source="t-QGVr6KC28RbxTMeGiW-10" target="t-QGVr6KC28RbxTMeGiW-11">
          <mxGeometry relative="1" as="geometry" />
        </mxCell>
        <mxCell id="t-QGVr6KC28RbxTMeGiW-14" value="" style="edgeStyle=orthogonalEdgeStyle;rounded=0;orthogonalLoop=1;jettySize=auto;html=1;exitX=0.5;exitY=1;exitDx=0;exitDy=0;" edge="1" parent="1" source="t-QGVr6KC28RbxTMeGiW-11" target="t-QGVr6KC28RbxTMeGiW-13">
          <mxGeometry relative="1" as="geometry" />
        </mxCell>
      </root>
    </mxGraphModel>
  </diagram>
</mxfile>
